<?xml version="1.0" standalone="no"?>
<!DOCTYPE svg PUBLIC "-//W3C//DTD SVG 20010904//EN"
 "http://www.w3.org/TR/2001/REC-SVG-20010904/DTD/svg10.dtd">
<svg version="1.0" xmlns="http://www.w3.org/2000/svg"
 width="335.000000pt" height="330.000000pt" viewBox="0 0 335.000000 330.000000"
 preserveAspectRatio="xMidYMid meet">
<metadata>
Created by potrace 1.16, written by Peter Selinger 2001-2019
</metadata>
<g transform="translate(0.000000,330.000000) scale(0.100000,-0.100000)"
fill="#000000" stroke="none">
<path d="M0 1841 l0 -920 52 -4 53 -3 -52 -2 -53 -2 0 -455 0 -455 1675 0
1675 0 0 326 0 325 -37 -3 c-33 -3 -40 -8 -55 -39 -12 -26 -34 -46 -75 -69
-33 -19 -103 -77 -160 -134 -56 -56 -128 -117 -159 -136 -31 -19 -81 -57 -111
-83 -30 -26 -65 -52 -78 -57 -14 -5 -70 -6 -132 -1 -59 4 -222 9 -361 10 -139
1 -260 5 -267 7 -7 3 -22 24 -33 47 -27 56 -71 97 -118 108 -52 12 -87 11 -79
-1 4 -6 10 -8 15 -5 4 3 15 3 23 0 19 -8 10 -55 -12 -55 -9 0 -33 -16 -54 -35
-33 -30 -40 -33 -62 -23 -31 14 -33 53 -4 69 15 8 18 14 10 22 -7 7 -16 6 -29
-6 -10 -9 -23 -17 -28 -17 -13 0 -60 -50 -66 -70 -5 -14 -10 1 -38 110 -9 35
-15 40 -39 40 -20 0 -28 5 -28 18 0 9 4 20 9 23 4 3 -3 12 -17 19 -22 12 -28
12 -35 0 -10 -17 0 -154 12 -158 13 -6 -1 -22 -19 -22 -13 0 -15 9 -11 44 3
25 2 48 -2 53 -14 16 -32 101 -25 122 5 17 10 19 25 11 46 -24 55 5 14 43 -22
21 -23 25 -10 37 19 15 20 34 4 63 -17 31 -19 50 -5 59 6 4 10 24 8 48 -2 40
-2 40 22 29 19 -9 25 -19 25 -48 0 -20 6 -49 12 -65 8 -22 8 -31 -1 -37 -7 -4
-9 -15 -5 -24 5 -14 13 -16 38 -11 39 8 45 13 30 28 -21 21 -13 32 8 13 11
-10 22 -16 24 -14 11 11 96 141 96 147 0 4 18 27 40 52 30 33 38 49 33 65 -4
11 -7 29 -7 41 -1 11 -7 29 -15 38 -13 16 -16 15 -41 -9 -14 -14 -31 -25 -36
-25 -6 0 -19 -9 -29 -20 -14 -16 -16 -25 -8 -43 11 -25 2 -61 -24 -89 -23 -26
-28 -23 -41 27 -8 30 -17 45 -28 45 -14 0 -15 7 -10 39 4 27 2 42 -8 50 -11 9
-13 26 -9 67 4 32 2 54 -4 54 -5 0 -11 26 -12 59 -2 46 2 60 14 65 29 11 5 26
-40 24 -39 -1 -44 -4 -47 -27 -2 -14 -7 33 -12 106 -9 151 -15 162 -91 171
-63 7 -118 -19 -133 -63 -13 -34 -7 -135 10 -167 8 -16 4 -18 -30 -18 -22 0
-45 6 -52 14 -8 11 -12 100 -13 318 l-2 303 80 7 c44 4 109 11 145 16 l65 9
-57 1 c-51 2 -58 4 -58 22 0 11 6 20 13 20 7 0 19 9 27 20 9 13 26 20 46 20
17 0 37 7 44 15 7 9 29 15 55 15 25 0 48 6 54 14 7 8 31 18 53 21 23 4 48 14
56 21 7 8 33 14 57 14 25 0 50 6 59 15 22 22 73 19 81 -4 5 -17 9 -18 33 -6
22 11 138 11 612 5 542 -8 968 -12 998 -11 6 1 12 12 12 25 l0 24 -397 6
c-572 8 -1307 25 -1458 33 -71 4 -141 6 -155 6 -14 -1 -75 1 -137 4 -146 6
-150 14 -64 118 23 27 41 57 41 67 0 9 9 22 20 28 23 12 60 92 64 138 3 31 2
32 -35 32 -26 0 -39 5 -39 13 0 22 -34 47 -63 47 -16 0 -27 6 -27 14 0 19 73
25 315 27 171 2 205 5 237 20 20 10 39 23 43 29 3 5 15 10 26 10 10 0 19 4 19
9 0 5 8 11 18 13 27 7 -114 17 -368 28 -129 6 -467 9 -751 8 l-515 -3 -32 27
c-18 15 -39 25 -46 22 -8 -3 -17 -1 -21 5 -3 6 -10 11 -16 11 -5 0 -9 -352 -9
-919z m581 -631 c24 -13 25 -30 1 -30 -42 0 -57 -51 -20 -71 l22 -12 -22 -8
c-12 -5 -22 -15 -22 -24 0 -8 -10 -16 -22 -16 -23 -2 -23 -2 -1 -6 18 -4 22
-12 25 -60 1 -30 1 -56 -2 -58 -6 -4 -187 -7 -286 -6 -60 1 -61 2 -56 26 2 14
8 25 13 25 5 0 9 6 9 13 0 7 21 19 47 26 26 8 55 21 65 30 11 10 33 14 61 12
43 -2 44 -2 40 26 -4 27 -7 28 -51 24 -26 -2 -43 1 -39 5 4 5 23 7 42 5 26 -2
36 3 45 18 6 13 21 21 35 21 14 0 25 5 25 10 0 6 7 10 15 10 8 0 15 4 15 9 0
10 28 41 36 41 3 0 14 -5 25 -10z m-128 -577 c82 -5 97 -9 94 -22 -2 -9 -8
-15 -15 -14 -6 2 -33 -11 -59 -27 -33 -21 -59 -30 -90 -30 -24 0 -43 -4 -43
-10 0 -13 -27 -13 -32 -1 -4 13 -88 32 -88 20 0 -15 -26 -10 -42 9 -18 21 -17
40 2 52 8 5 11 10 5 11 -5 0 -1 4 10 9 25 11 128 12 258 3z"/>
<path d="M2365 2672 l-40 -7 29 -27 c47 -43 102 -53 311 -53 105 0 244 4 310
9 159 11 189 26 117 58 -31 13 -92 17 -362 21 -179 3 -343 2 -365 -1z"/>
</g>
</svg>
